<?xml version="1.0" encoding="UTF-8"?>
<!DOCTYPE svg PUBLIC "-//W3C//DTD SVG 1.1//EN" "http://www.w3.org/Graphics/SVG/1.1/DTD/svg11.dtd">
<!-- Creator: CorelDRAW 2020 (64-Bit) -->
<svg xmlns="http://www.w3.org/2000/svg" xml:space="preserve" width="3.90279in" height="1.79248in" version="1.1" style="shape-rendering:geometricPrecision; text-rendering:geometricPrecision; image-rendering:optimizeQuality; fill-rule:evenodd; clip-rule:evenodd"
viewBox="0 0 1914.7 879.39"
 xmlns:xlink="http://www.w3.org/1999/xlink"
 xmlns:xodm="http://www.corel.com/coreldraw/odm/2003">
 <defs>
  <style type="text/css">
   <![CDATA[
    .fil0 {fill:#606062}
    .fil1 {fill:#18925D;fill-rule:nonzero}
    .fil2 {fill:#606062;fill-rule:nonzero}
   ]]>
  </style>
 </defs>
 <g id="Layer_x0020_1">
  <metadata id="CorelCorpID_0Corel-Layer"/>
  <g id="_2705022951920">
   <path class="fil0" d="M1886.92 683.21c-646.37,27.16 -1276.03,93.6 -1886.92,196.18 630.83,-87.26 1278.04,-141.45 1914.2,-169.66l0.49 -431.92c-0.03,-137.09 -172.14,-278.01 -331.49,-277.81 125.57,8.65 304.4,130.6 303.71,287.14l0 396.06z"/>
   <path class="fil1" d="M760.28 328.12c0,-110.88 -80.64,-203.42 -215.34,-203.42l-252.9 0 0 634.72c42.39,-5.7 84.84,-11.23 127.37,-16.61l0 -211.27 125.53 0c134.7,0 215.34,-92.55 215.34,-203.42zm-127.37 0c0,53.14 -36.65,88.88 -94.38,88.88l-119.12 0 0 -178.68 119.12 0c57.73,0 94.38,36.65 94.38,89.8zm627.1 0c0,-110.88 -80.64,-203.42 -215.33,-203.42l-252.9 0 0 575.34c42.4,-4.39 84.85,-8.63 127.37,-12.71l0 -155.79 125.53 0c134.7,0 215.33,-92.55 215.33,-203.42zm-127.37 0c0,53.14 -36.66,88.88 -94.38,88.88l-119.12 0 0 -178.68 119.12 0c57.73,0 94.38,36.65 94.38,89.8zm640.12 181.43l0 -95.3 -246.49 0 0 106.29 120.04 0 0 24.74c0,35.73 -9.75,65.35 -29.32,87.05 -0.63,0.7 -1.27,1.38 -1.91,2.06 47.8,-2.71 95.68,-5.24 143.62,-7.59 9.85,-31.86 14.06,-69.72 14.06,-117.26zm-319.16 134.71c-3.13,-2.81 -6.09,-5.87 -8.88,-9.17 -25.59,-30.29 -31.16,-55.9 -31.16,-184.18 0,-129.2 6.62,-153.61 31.16,-183.26 19.45,-23.5 47.65,-34.82 81.55,-34.82 63.23,0 101.71,32.07 117.29,95.3l128.29 0c-17.41,-113.62 -97.13,-208.92 -245.57,-208.92 -69.64,0 -128.28,23.82 -175.93,71.47 -28.4,28.4 -45.73,60.49 -53.15,98.04 -7.24,36.67 -10.99,90.72 -10.99,162.19 0,71.47 3.67,125.53 10.99,162.19 2.86,14.28 7.25,28 13.22,41.12 47.66,-3.5 95.39,-6.82 143.19,-9.95z"/>
   <path class="fil2" d="M1864.71 60.32c14.54,0 26.01,-11.82 26.01,-25.93l0 -0.14c0,-14.11 -11.32,-25.79 -25.86,-25.79 -14.54,0 -26,11.82 -26,25.93l0 0.14c0,14.11 11.32,25.79 25.86,25.79zm0 -2.86c-13.04,0 -22.85,-10.24 -22.85,-22.92l0 -0.14c0,-12.68 9.89,-23.07 23,-23.07 13.04,0 22.85,10.24 22.85,22.92l0 0.14c0,12.68 -9.89,23.07 -23,23.07zm0.36 -9.17c5.3,0 8.45,-1.86 11.32,-4.94l-4.01 -4.01c-2.15,1.94 -4.01,3.22 -7.09,3.22 -4.66,0 -7.88,-3.87 -7.88,-8.45l0 -0.14c0,-4.66 3.3,-8.45 7.88,-8.45 2.65,0 4.87,1.22 6.95,3.08l3.94 -4.59c-2.58,-2.51 -5.66,-4.23 -10.89,-4.23 -8.45,0 -14.33,6.45 -14.33,14.26l0 0.14c0,7.88 6.02,14.11 14.11,14.11z"/>
  </g>
 </g>
</svg>
